<svg xmlns="http://www.w3.org/2000/svg" width="34.918" height="34.918" viewBox="0 0 34.918 34.918"><defs><style>.a{fill:#fff;}.b{fill:none;}</style></defs><g transform="translate(0 0)"><path class="a" d="M16.549,2A14.549,14.549,0,1,0,31.1,16.549,14.555,14.555,0,0,0,16.549,2Zm0,4.365a4.365,4.365,0,1,1-4.365,4.365A4.359,4.359,0,0,1,16.549,6.365Zm0,20.66A10.476,10.476,0,0,1,7.82,22.34c.044-2.9,5.82-4.481,8.73-4.481s8.686,1.586,8.73,4.481A10.476,10.476,0,0,1,16.549,27.025Z" transform="translate(0.91 0.91)"/><path class="b" d="M0,0H34.918V34.918H0Z"/></g></svg>