<svg xmlns="http://www.w3.org/2000/svg" width="15.966" height="10.264" viewBox="0 0 15.966 10.264"><defs><style>.a{fill:none;stroke-linecap:round;stroke-linejoin:round;}.b,.c{stroke:none;}.c{fill:#0092c0;}</style></defs><g transform="translate(-680.793 -334.474)"><g class="a" transform="translate(-388.728 -933.298)"><path class="b" d="M1070.521,1268.772l6.966,8.264Z"/><path class="c" d="M 1070.520874023438 1268.77197265625 L 1077.486572265625 1277.035888671875 L 1070.520874023438 1268.77197265625 M 1070.520385742188 1267.77197265625 C 1070.805053710938 1267.77197265625 1071.087646484375 1267.892822265625 1071.285522460938 1268.12744140625 L 1078.251220703125 1276.391357421875 C 1078.607177734375 1276.813720703125 1078.553344726562 1277.444580078125 1078.131103515625 1277.800537109375 C 1077.943481445312 1277.958618164062 1077.714599609375 1278.035888671875 1077.487060546875 1278.035888671875 C 1077.202392578125 1278.035888671875 1076.919799804688 1277.9150390625 1076.721923828125 1277.680419921875 L 1069.756225585938 1269.41650390625 C 1069.400268554688 1268.994140625 1069.4541015625 1268.36328125 1069.876342773438 1268.00732421875 C 1070.06396484375 1267.849243164062 1070.292846679688 1267.77197265625 1070.520385742188 1267.77197265625 Z"/></g><g class="a" transform="translate(-381.728 -933.298)"><path class="b" d="M1077.486,1268.772l-6.966,8.264Z"/><path class="c" d="M 1077.486450195312 1268.77197265625 L 1070.520751953125 1277.035888671875 L 1077.486450195312 1268.77197265625 M 1077.486938476562 1267.77197265625 C 1077.714599609375 1267.77197265625 1077.943359375 1267.849243164062 1078.130981445312 1268.00732421875 C 1078.55322265625 1268.36328125 1078.607055664062 1268.994140625 1078.251098632812 1269.41650390625 L 1071.285400390625 1277.680419921875 C 1071.087524414062 1277.9150390625 1070.804809570312 1278.035888671875 1070.520263671875 1278.035888671875 C 1070.292724609375 1278.035888671875 1070.063842773438 1277.958618164062 1069.876220703125 1277.800537109375 C 1069.453979492188 1277.444580078125 1069.400146484375 1276.813720703125 1069.756103515625 1276.391357421875 L 1076.721801757812 1268.12744140625 C 1076.919677734375 1267.892822265625 1077.202392578125 1267.77197265625 1077.486938476562 1267.77197265625 Z"/></g></g></svg>