<svg xmlns="http://www.w3.org/2000/svg" width="16" height="19.656" viewBox="0 0 16 19.656"><path d="M732.911,133a1.9,1.9,0,0,1,1.3.982,1.872,1.872,0,0,1-.268,2.11c-.008.01-.017.019-.026.028-.912.856-.722,1.019-.727,1.882-.01,1.573,0,3.145,0,4.718,0,.53-.225.735-.75.732-1.362-.008-2.723,0-4.085,0a.226.226,0,0,0-.236.15,1.808,1.808,0,0,1-.914.916.239.239,0,0,0-.154.253q0,1.755,0,3.51a1.349,1.349,0,0,0,.5,1.015,2.259,2.259,0,0,1,.655.974,1.855,1.855,0,0,1-1.725,2.39,1.816,1.816,0,0,1-1.885-1.517,1.784,1.784,0,0,1,.443-1.584,1.491,1.491,0,0,1,.159-.166,1.581,1.581,0,0,0,.6-1.378c-.029-.688-.03-1.378-.015-2.067.009-.389-.018-.779.011-1.167a.237.237,0,0,0-.159-.267,1.757,1.757,0,0,1-.9-.9.234.234,0,0,0-.247-.16q-1.688.006-3.375,0c-.161,0-.207.053-.206.21q.007,2.292,0,4.584a1.4,1.4,0,0,0,.519,1.067,2.065,2.065,0,0,1,.657,1.016,1.852,1.852,0,0,1-1.743,2.335,1.824,1.824,0,0,1-1.889-1.537,1.783,1.783,0,0,1,.462-1.579c.125-.137.26-.264.388-.4a1.227,1.227,0,0,0,.353-.884q0-5.437,0-10.875a1.268,1.268,0,0,0-.4-.925,3.135,3.135,0,0,1-.624-.746,1.865,1.865,0,0,1,1.194-2.679c.037-.01.073-.022.109-.032h.691c.037.011.073.023.11.033a1.865,1.865,0,0,1,1.339,2.307,2,2,0,0,1-.638.983,1.473,1.473,0,0,0-.531,1.294c.007.076,0,.153,0,.23q0,2.071,0,4.143c0,.139.025.208.188.207,1.138-.006,2.276,0,3.414,0a.2.2,0,0,0,.21-.127,1.817,1.817,0,0,1,.954-.953.174.174,0,0,0,.121-.175c0-.357-.006-.715-.008-1.072,0-.312,0-.625,0-.937,0-.44-.017-.882.013-1.321a1.581,1.581,0,0,0-.629-1.385,1.113,1.113,0,0,1-.12-.124,1.878,1.878,0,0,1,1.029-3.1h.691c.042.013.085.028.128.04a1.86,1.86,0,0,1,1.126,2.758,3.433,3.433,0,0,1-.578.663,1.312,1.312,0,0,0-.4.965q.007,1.726,0,3.453a.233.233,0,0,0,.15.253,1.787,1.787,0,0,1,.924.931.194.194,0,0,0,.2.134q1.717-.005,3.433,0c.134,0,.182-.049.177-.18-.009-.255-.013-.511-.013-.766,0-.7.009-1.391.009-2.087,0-.58-.018-1.161-.008-1.741a1.177,1.177,0,0,0-.263-.818c-.148-.175-.321-.33-.472-.5a1.877,1.877,0,0,1,1.029-3.1Z" transform="translate(-718.426 -133)"/></svg>