<svg xmlns="http://www.w3.org/2000/svg" xmlns:xlink="http://www.w3.org/1999/xlink" width="2057.352" height="1148.147" stye='background-color: blue' viewBox="0 0 2057.352 1148.147"><defs><style>.a{opacity:0.077;fill:url(#a);}</style><linearGradient id="a" x1="0.5" x2="0.5" y2="1" gradientUnits="objectBoundingBox"><stop offset="0" stop-color="#fff"/><stop offset="0.97" stop-color="#efefef"/><stop offset="1" stop-color="#f5f5f5"/></linearGradient></defs><g transform="translate(321.093 326.284)"><path class="a" d="M811.9,2896.029c-17.1-285.456,169.514-377.885,365.129-327.7s208.1,329.912,507.149,296.567,358.757,453.7,159.681,470.2S819.966,3409.08,811.9,2916.519,811.9,2896.029,811.9,2896.029Z" transform="translate(2071.046 3259.837) rotate(-172)"/><path class="a" d="M811.9,2896.029c-17.1-285.456,169.514-377.885,365.129-327.7s208.1,329.912,507.149,296.567,358.757,453.7,159.681,470.2S819.966,3409.08,811.9,2916.519,811.9,2896.029,811.9,2896.029Z" transform="translate(1264.046 3464.837) rotate(-172)"/></g></svg>