<svg xmlns="http://www.w3.org/2000/svg" width="33.639" height="29.686" viewBox="0 0 33.639 29.686"><defs><style>.a{fill:rgba(255,255,255,0.98);}</style></defs><path class="a" d="M89.276,126.794c0-.192-.011-.386-.029-.58a7.608,7.608,0,0,0-.358-1.716c-.361-1.079-.734-2.153-1.11-3.226h0q-.267-.762-.533-1.523c-.07-.2-.139-.4-.209-.6-.483-1.381-.964-2.762-1.419-4.152a5.3,5.3,0,0,0-.23-.587c-.027-.057-.06-.1-.088-.159a3.781,3.781,0,0,0-.189-.34c-.039-.059-.085-.106-.126-.16a2.943,2.943,0,0,0-.2-.254c-.049-.052-.106-.092-.158-.139a2.732,2.732,0,0,0-.224-.194c-.06-.043-.128-.074-.191-.111a2.713,2.713,0,0,0-.248-.142c-.07-.032-.149-.053-.224-.081-.091-.033-.179-.07-.276-.1-.082-.021-.172-.032-.258-.049s-.2-.042-.305-.054-.2-.011-.295-.016c-.119-.006-.233-.018-.36-.017h-.015q-4.824.038-9.648.038h-.008q-4.843,0-9.687-.037c-.126,0-.238.012-.357.019-.1.006-.2.006-.292.017s-.2.038-.3.059-.174.029-.253.051-.179.066-.267.1c-.073.029-.151.051-.22.085a2.642,2.642,0,0,0-.237.144c-.063.04-.131.073-.191.118a2.766,2.766,0,0,0-.213.19c-.054.05-.112.093-.163.148-.069.074-.131.161-.2.245-.045.057-.093.108-.135.17-.068.1-.13.212-.193.322-.033.058-.069.109-.1.169q-.138.265-.263.569-.848,2.062-1.553,4.145c-.237.706-.462,1.413-.668,2.124a41.8,41.8,0,0,0-1.342,6.333,33.1,33.1,0,0,0-.11,7.7,34.217,34.217,0,0,1,.023,3.8c0,.1,0,.2,0,.293q0,.225.009.428c0,.041,0,.077.006.116,0,.092.008.185.015.27,0,.041.008.077.012.116.007.077.014.156.023.228.006.043.014.08.021.12.01.063.019.127.032.185.009.04.02.075.03.113s.026.107.041.155.026.066.039.1.033.093.053.134.033.057.049.087.042.079.066.115.04.05.061.076.05.066.079.1.05.043.075.065.059.054.091.078.06.036.09.054.068.044.106.063.07.03.105.044.079.034.122.049.082.023.123.034.089.026.138.037.094.017.14.025.1.019.155.026.106.011.16.017.113.013.174.017.119.006.179.009.126.007.194.009l.2,0c.08,0,.156,0,.241,0,.267,0,.506-.008.723-.024a2.969,2.969,0,0,0,1.03-.221,1.238,1.238,0,0,0,.588-.557,1.841,1.841,0,0,0,.094-.207,2.993,2.993,0,0,0,.139-.507,8.639,8.639,0,0,0,.118-1.027,4.4,4.4,0,0,1,.1-.623c.03-.143.062-.288.089-.439H83.632c.032.18.061.319.085.439v0a2.656,2.656,0,0,1,.047.322c.01.154.021.3.033.438,0,.044.008.083.013.125.009.092.018.183.028.268.006.048.013.092.019.138.01.073.02.145.032.213.008.046.017.088.026.131.012.062.024.122.038.179.01.041.021.08.032.119s.03.1.047.152.026.071.04.106.037.088.058.13.031.062.048.091.046.075.07.11.037.053.057.077a1.186,1.186,0,0,0,.087.094c.021.021.042.043.064.062a1.327,1.327,0,0,0,.108.08c.023.016.045.033.07.047a1.441,1.441,0,0,0,.142.07c.022.01.042.021.066.031a2.01,2.01,0,0,0,.238.077l.023,0c.079.019.163.036.252.05.034.005.071.008.106.013.067.008.134.017.206.023l.141.008c.069,0,.138.008.213.01l.166,0,.247,0h.1c.131,0,.266,0,.41-.009,1.546-.051,2.126-.429,2.291-1.868a10.589,10.589,0,0,0,.055-1.175v-.12h0c.006-3.834.015-7.668-.013-11.5C89.277,127.335,89.278,127.064,89.276,126.794Zm-26.888,6.245h-.061c-.038,0-.075,0-.113-.006s-.089,0-.132-.007-.094-.013-.14-.02-.087-.012-.13-.021-.09-.022-.136-.034-.085-.021-.126-.034-.087-.031-.131-.048-.081-.029-.121-.046-.084-.04-.126-.061-.078-.036-.115-.058-.08-.048-.12-.073-.073-.044-.108-.068-.075-.055-.112-.084-.069-.051-.1-.079-.069-.063-.1-.095-.064-.057-.094-.087-.064-.069-.1-.1-.058-.063-.085-.1-.057-.075-.085-.113-.053-.068-.077-.1-.05-.081-.075-.122-.046-.072-.066-.109-.043-.087-.064-.131-.038-.076-.055-.115-.036-.094-.053-.142-.03-.076-.043-.115-.028-.1-.042-.156-.021-.074-.029-.112c-.013-.061-.021-.123-.03-.185,0-.031-.011-.061-.015-.092a2.746,2.746,0,0,1-.016-.284,2.593,2.593,0,0,1,.014-.281c0-.029.009-.057.013-.085.009-.064.017-.128.03-.19.007-.034.018-.068.026-.1.014-.055.026-.111.043-.165.012-.037.027-.073.04-.109s.034-.1.055-.148.035-.072.053-.109.042-.092.066-.137.043-.07.064-.105.05-.086.078-.127.051-.068.076-.1.056-.078.086-.115.057-.064.086-.1.062-.072.1-.106.063-.058.094-.087.068-.066.1-.1.068-.053.1-.079.074-.059.112-.086.072-.045.107-.068.08-.053.122-.076.075-.038.112-.056.085-.045.129-.064.079-.03.118-.046h0c.045-.017.089-.036.134-.051s.083-.023.123-.034.091-.026.138-.036.086-.014.129-.021.094-.017.141-.022.087,0,.131-.007.088-.007.132-.007h.026a2.628,2.628,0,0,1,.917.178,2.832,2.832,0,0,1,1.794,2.7c0,.084-.008.168-.017.25a2.8,2.8,0,0,1-.617,1.467,2.84,2.84,0,0,1-.571.528q-.107.074-.22.138a2.591,2.591,0,0,1-1.09.338C62.507,133.032,62.448,133.038,62.388,133.039Zm5.322-9.378H59.559c.267-.8.528-1.592.788-2.378.171-.515.341-1.03.511-1.54.068-.2.137-.4.2-.607.363-1.081.729-2.153,1.109-3.219.091-.257.642-.5.981-.5q4.574-.022,9.147-.023h.09q4.741,0,9.481.032a1.59,1.59,0,0,1,1.075.58.565.565,0,0,1,.069.128q.336.917.655,1.843c.132.383.262.771.393,1.157q.36,1.063.717,2.143l.151.455q.316.954.639,1.926H67.71Zm16,9.209c-.044.017-.088.034-.134.047s-.082.023-.123.033-.091.024-.138.033-.085.015-.128.021-.093.014-.14.019-.087.005-.131.007-.067.006-.1.006l-.085,0-.036,0a2.724,2.724,0,0,1-1.7-.694,2.806,2.806,0,0,1-.645-.851,2.875,2.875,0,0,1-.194-.513,2.931,2.931,0,0,1-.075-.4c-.007-.053-.015-.1-.019-.158-.007-.1-.009-.193-.006-.291a2.606,2.606,0,0,1,.022-.277c0-.03.011-.06.017-.09.01-.06.02-.12.034-.179.009-.036.021-.07.031-.105.015-.052.029-.1.047-.155s.029-.072.043-.108.037-.1.059-.142.036-.07.054-.105.046-.089.071-.133.043-.067.064-.1.053-.084.083-.124.049-.064.074-.1.06-.077.092-.114.055-.06.083-.089.066-.07.1-.1.061-.055.092-.082.072-.063.11-.093.066-.049.1-.074.077-.055.117-.082.07-.043.106-.064.083-.048.125-.07.074-.037.111-.054.086-.039.13-.058l.059-.025.058-.019c.045-.015.089-.03.135-.044s.081-.022.121-.032.092-.021.138-.03.083-.015.125-.02.094-.011.142-.015.085-.006.128-.007c.021,0,.043,0,.064,0,.051,0,.1,0,.155,0a2.7,2.7,0,0,1,.774.164,2.745,2.745,0,0,1,.481.233,2.84,2.84,0,0,1,1.156,1.372,2.773,2.773,0,0,1,.148.509,2.742,2.742,0,0,1,.048.54,2.713,2.713,0,0,1-.017.283c0,.031-.011.06-.015.091-.009.062-.017.124-.031.185-.008.036-.019.072-.029.107-.014.053-.026.107-.043.16-.012.037-.028.072-.041.109s-.035.1-.056.147-.035.072-.053.108-.043.092-.068.136-.042.07-.064.1-.051.085-.079.126-.048.065-.072.1-.059.08-.09.118-.055.061-.082.091-.065.073-.1.108-.06.056-.091.083-.071.066-.108.1-.065.05-.1.075-.076.059-.116.085-.07.045-.106.066-.081.051-.122.073-.075.038-.112.056-.085.042-.128.061S83.754,132.856,83.714,132.871Z" transform="translate(-55.659 -112.596)"/></svg>