<svg xmlns="http://www.w3.org/2000/svg" width="16" height="16" viewBox="0 0 16 16"><g transform="translate(0 0)"><path d="M808.185,777.367c-1.68,0-3.36,0-5.04,0a.6.6,0,0,1-.6-.321.628.628,0,0,1,.082-.669c.307-.452.605-.909.911-1.361a.507.507,0,0,0,.091-.3c0-3.657.013-7.315-.011-10.971a2.343,2.343,0,0,1,1.941-2.348,7.43,7.43,0,0,1,1.085-.019q1.941-.006,3.883,0a2.264,2.264,0,0,1,2.245,2.229c0,1.069,0,2.137,0,3.206,0,.265,0,.267.258.263a2.051,2.051,0,0,1,1.107.192,1.664,1.664,0,0,1,.914,1.5c.007.932,0,1.864,0,2.8a1.129,1.129,0,0,0,1.086,1.2,1.11,1.11,0,0,0,1.133-.893,2.374,2.374,0,0,0,.035-.514q0-2.3,0-4.6c0-.154-.024-.217-.2-.248a1.151,1.151,0,0,1-.66-1.892c.1-.111.1-.161-.017-.258-.766-.629-1.524-1.268-2.285-1.9a.62.62,0,0,1-.241-.677.587.587,0,0,1,.938-.282c.387.3.76.627,1.138.942.629.524,1.262,1.044,1.885,1.574a1.647,1.647,0,0,1,.606,1.312c0,2.1-.016,4.192.006,6.287a2.3,2.3,0,0,1-4.555.5,4.566,4.566,0,0,1-.037-.887c-.006-.766,0-1.532,0-2.3,0-.471-.213-.7-.68-.7-.519,0-.433-.077-.434.423,0,1.977,0,3.954,0,5.931a.772.772,0,0,0,.136.481c.291.411.563.837.843,1.256a.629.629,0,0,1-.052.908.6.6,0,0,1-.4.121Q810.741,777.365,808.185,777.367Zm-.006-13.681h0q-1.22,0-2.44,0c-.274,0-.377.1-.378.378q0,1.309,0,2.618c0,.292.107.4.4.4h4.862c.315,0,.416-.1.416-.416q0-1.273,0-2.547c0-.343-.087-.432-.433-.432Q809.39,763.684,808.179,763.686Z" transform="translate(-802.478 -761.371)"/></g></svg>