<svg xmlns="http://www.w3.org/2000/svg" width="34" height="34" viewBox="0 0 34 34"><defs><style>.a{fill:#fff;opacity:0.75;}</style></defs><path class="a" d="M4.98,29.02A17,17,0,1,1,29.02,4.98,17,17,0,1,1,4.98,29.02Zm10.475,1.8V21.373a4.648,4.648,0,0,1-2.826-2.828H3.176A13.938,13.938,0,0,0,15.455,30.824Zm3.091-9.451v9.451A13.938,13.938,0,0,0,30.824,18.545H21.373A4.654,4.654,0,0,1,18.545,21.373Zm2.826-5.918h9.452a13.91,13.91,0,0,0-27.648,0h9.452a4.637,4.637,0,0,1,8.743,0Z" transform="translate(0)"/></svg>