<svg xmlns="http://www.w3.org/2000/svg" width="277.076" height="101.582" viewBox="0 0 277.076 101.582"><defs><style>.a{fill:#fff;}</style></defs><g transform="translate(277.772 -711.632)"><path class="a" d="M-.729,804.584c-2.18,0-4.359-.01-6.538,0-8.289.045-16.579.073-24.867.153-20.169.2-40.337.458-60.506.616-25.79.2-51.581.32-77.372.488q-25.675.168-51.35.391c-.816.007-1.318-.13-1.4-1.055-.02-.225-.406-.418-.624-.625-.187.214-.494.406-.541.647a12.3,12.3,0,0,1-3.156,5.672,25.652,25.652,0,0,1-2.3,2.127.679.679,0,0,1-.387.2c-1.116.015-2.232.009-3.375.009,1.051-.71,2.084-1.328,3.027-2.06a13.811,13.811,0,0,0,4.379-5.985,13.073,13.073,0,0,0,.625-6.126,4.7,4.7,0,0,0-.622-1.546,33.568,33.568,0,0,0-4.6-7.091,11.557,11.557,0,0,0-5.558-3.16,17.658,17.658,0,0,0-6.249-.435,12.907,12.907,0,0,0-3.746.941,10.831,10.831,0,0,0-3.221,1.655,20.009,20.009,0,0,0-3.122,3.46c-.86,1.16-1.49,2.489-2.252,3.726a6.858,6.858,0,0,0-.836,3.372,12.872,12.872,0,0,0,1.364,6.817,13.609,13.609,0,0,0,3.571,4.255c.957.769,2,1.434,3.037,2.172-1.125,0-2.288.048-3.442-.033-.3-.021-.586-.436-.86-.689a17.032,17.032,0,0,1-4.4-5.745c-.309-.728-.537-1.489-.8-2.237a1.663,1.663,0,0,0-.4-.726,4.4,4.4,0,0,0-.267.562c-.085.267-.12.549-.2.82-.228.813-.629,1.32-1.616,1.169a8.768,8.768,0,0,0-2,.021,13.2,13.2,0,0,1-4.625-.892c-.784-.219-1.557-.482-2.344-.692-1.719-.457-3.448-.879-5.166-1.34-1.277-.343-2.551-.7-3.807-1.111a.886.886,0,0,1-.409-.674c-.068-1.229-.105-2.462-.1-3.693.027-5.723.016-11.447.146-17.167a21.958,21.958,0,0,1,.826-4.346,26.408,26.408,0,0,1,.9-2.992c.414-1.148.989-2.242,1.356-3.4.665-2.1,2.5-2.691,4.223-3.444,1.14-.5,2.292-.971,3.441-1.447,1.217-.5,2.442-.991,3.657-1.5,1.055-.441,2.1-.91,3.154-1.349,1.781-.74,3.575-1.448,5.349-2.2,1.1-.469,2.164-1.023,3.264-1.495,1.492-.64,2.989-1.276,4.51-1.844a11.878,11.878,0,0,0,4.357-2.731c7.191-7.17,14.445-14.276,21.659-21.423q10.369-10.273,20.717-20.569a1.547,1.547,0,0,1,.994-.4q15.668.025,31.335.1c.173,0,.346.025.558.041v12.31c-.3,0-.589,0-.884,0q-12.318.053-24.637.125a1.764,1.764,0,0,0-1.122.441q-14.351,14.138-28.664,28.314a11.964,11.964,0,0,0-1.652,1.952h9.341c.357,1.758.256,1.922-1.226,2.123-2.127.288-4.267.5-6.381.863-2.436.419-4.854.946-7.271,1.467-1.939.418-3.88.846-5.794,1.364-1.567.424-3.1.984-4.64,1.49-1.4.459-2.807.9-4.192,1.4-.933.335-1.853.721-2.75,1.144-2.166,1.022-4.385,1.959-6.453,3.155-2.273,1.315-4.391,2.9-6.592,4.336a15.869,15.869,0,0,0-5.449,6.022c-.958,1.832-1.935,3.668-2.7,5.582a39.474,39.474,0,0,0-1.332,4.688,31.511,31.511,0,0,0-.888,3.712c-.329,2.4-.963,4.774-.815,7.233a.618.618,0,0,0,.553.671c1.844.494,3.671,1.048,5.511,1.558a19.5,19.5,0,0,0,2.962.715c1.3.147,1.625-.135,1.977-1.381a39.8,39.8,0,0,1,3.291-7.482,25.807,25.807,0,0,1,6.759-8.155,16.039,16.039,0,0,1,5.052-2.733,18.269,18.269,0,0,1,8.282-.457,12.986,12.986,0,0,1,5.205,2.1,21,21,0,0,1,5.756,5.472,45.869,45.869,0,0,1,3.8,6.538,44.832,44.832,0,0,1,1.886,4.978,1.394,1.394,0,0,0,1.612,1.155q27.369.169,54.738.338c11.035.064,22.07.1,33.1.164q22.635.134,45.269.3,22.4.182,44.8.441c13.317.165,26.633.407,39.949.616.076,0,.151.015.227.024Z" transform="translate(0 0)"/><path class="a" d="M117.322,756.157c0-1.2,0-2.3,0-3.4q-.025-13.4-.052-26.792a2.727,2.727,0,0,0-.046-.915,1.066,1.066,0,0,0-.567-.576,3.146,3.146,0,0,0-.992-.054q-10.855-.057-21.711-.112c-.254,0-.509,0-.847,0V712.026c.211-.019.408-.052.6-.052q29.679,0,59.358-.016c.716,0,.989.192.983.954-.034,3.745-.015,7.491-.015,11.337-.372.021-.718.055-1.064.056q-10.817.061-21.634.114c-1.466.008-1.475.01-1.475,1.508q-.009,14.706-.01,29.41v.819Z" transform="translate(-256.661 -0.226)"/><path class="a" d="M302.427,755.964V711.8c.637-.045,1.191-.119,1.745-.117,3.335.011,6.669.051,10,.052.578,0,.738.206.74.764q.034,15.084.087,30.169c0,.685.273.909.91.911q17.239.042,34.479.117a1.8,1.8,0,0,1,1.148.442q5.889,5.788,11.726,11.628l-.07.2Z" transform="translate(-401.516 -0.034)"/><path class="a" d="M-14.459,792.118c-.017-.28-.041-.5-.043-.729q-.056-6.927-.108-13.853c-.008-1.026,0-1.018-1.018-1.021q-11.352-.04-22.7-.088c-.17,0-.339-.036-.626-.068a3.194,3.194,0,0,1,.378-.628c3.527-3.433,7.1-6.823,10.576-10.3a4.682,4.682,0,0,1,3.7-1.49c7.131.113,14.263.1,21.4.128.254,0,.509,0,.868,0v28.053Z" transform="translate(-165.267 -36.196)"/><path class="a" d="M-176.562,986.954c-5.031.407-9.786-4.287-9.832-9.339a9.613,9.613,0,0,1,9.614-10.062,9.575,9.575,0,0,1,9.7,8.432A9.542,9.542,0,0,1-176.562,986.954Zm3-11.173.14.32c1.6,0,3.2.039,4.8-.024a.685.685,0,0,0,.567-.979c-.284-.745-.665-1.455-1.022-2.172a.9.9,0,0,0-1.6-.281c-.783.721-1.565,1.444-2.311,2.2A4.851,4.851,0,0,0-173.558,975.781Zm-2.256,7.23h.026c0,.715-.021,1.431.007,2.145.022.577.373.875.922.678.8-.286,1.563-.671,2.346-1a.658.658,0,0,0,.272-1.162c-.915-.993-1.882-1.94-2.869-2.863-.427-.4-.7-.182-.7.364C-175.82,981.785-175.814,982.4-175.814,983.011Zm-2.6.048.042,0c-.044-.712-.073-1.426-.139-2.137-.034-.373-.225-.618-.6-.3-.938.787-1.875,1.577-2.775,2.405-.331.3-.561.819-.078,1.117a19.759,19.759,0,0,0,2.631,1.32c.621.265.907-.106.919-.714C-178.406,984.184-178.415,983.622-178.415,983.06Zm2.848-9.2c.444-.36.782-.614,1.1-.894.729-.645,1.42-1.336,2.178-1.943.516-.413.5-.847,0-1.081a20.943,20.943,0,0,0-2.84-1.027c-.467-.141-.7.134-.689.638.018,1.154-.006,2.308.014,3.462A4.024,4.024,0,0,0-175.567,973.861Zm4.748,4.624v-.074c-.485,0-.972-.023-1.455.01a3.152,3.152,0,0,0-.691.208c.084.255.1.576.264.755.729.784,1.479,1.551,2.268,2.274.42.385.909.392,1.192-.2.293-.613.5-1.268.8-1.874.315-.627.22-.99-.47-1.081A14.918,14.918,0,0,0-170.819,978.485Zm-11.967-2.612v.11c.487,0,.976.027,1.46-.011.257-.02.658-.092.718-.248a.886.886,0,0,0-.2-.767c-.809-.816-1.655-1.6-2.521-2.354a.632.632,0,0,0-.6.116,16.594,16.594,0,0,0-1.08,2.248c-.19.519.061.905.688.906Zm1.008-5.532c.957.98,1.728,1.793,2.53,2.577.278.271.764.555.816-.106a26.38,26.38,0,0,0-.028-3.364.513.513,0,0,0-.764-.484C-180.072,969.374-180.884,969.853-181.778,970.341Zm-2.543,11.274c1.079-.831,1.98-1.482,2.819-2.206.171-.147.172-.575.125-.851-.02-.114-.371-.237-.576-.243-.79-.025-1.581-.011-2.372,0-.493.008-.824.272-.718.766C-184.872,979.879-184.6,980.653-184.321,981.615Z" transform="translate(-63.236 -177.104)"/><path class="a" d="M241.152,905.469v1.52h-4.084c-.95,0-1.9-.032-2.847.019-.22.012-.619.337-.6.458a1.607,1.607,0,0,0,.489.807c.112.107.393.047.6.047,2.387,0,4.774.033,7.159-.024.783-.019.818.463.889.96.092.648-.419.6-.816.6-3.232.015-6.465.01-9.7.031-.59,0-.8-.2-.784-.808.037-2.025.031-4.052.018-6.078,0-.525.184-.726.718-.729q4.734-.025,9.467-.1c.6-.01.756.3.762.8.007.529-.117.842-.778.84-2.411-.008-4.822.054-7.233.072-.5,0-.773.2-.832.694-.067.559.276.735.738.748,1.949.055,3.9.1,5.848.139C240.472,905.475,240.776,905.469,241.152,905.469Z" transform="translate(-352.404 -131.861)"/><path class="a" d="M281.757,902.16c1.582.1,3.17.14,4.743.32a2.155,2.155,0,0,1,1.755,1.632,1.992,1.992,0,0,1-.557,2.171c-1.024,1.08-1.013,1.075-.392,2.4a9.616,9.616,0,0,1,.383,1.165,3.347,3.347,0,0,1-1.343.018,2.619,2.619,0,0,1-1.255-1.069c-.621-1.249-.69-1.361-2.061-1.353-.974.006-1.948.021-2.921-.012-.61-.021-.925.158-.855.824.029.275-.067.562-.053.84.034.656-.222.883-.9.858-1.522-.055-1.255.031-1.253-1.306,0-1.9.054-3.791.062-5.687,0-.525.214-.725.73-.718,1.306.017,2.612.006,3.918.006Zm.655,1.735v0c-.794,0-1.588.013-2.382,0-.614-.013-.8.307-.788.866.011.536.083.991.767.987.666,0,1.331-.012,2-.013.947,0,1.9.052,2.841-.019.579-.043,1.248-.255,1.276-.967s-.679-.7-1.178-.83a1.2,1.2,0,0,0-.306-.016Z" transform="translate(-383.938 -131.851)"/><path class="a" d="M80.264,906.137c0-.948,0-1.9,0-2.844,0-.537.264-.76.82-.755,2.537.023,5.074.02,7.611.019,1.867,0,3.106,1.465,2.793,2.713a4.062,4.062,0,0,1-1.077,1.679c-.48.5-.707.881-.2,1.479a5.369,5.369,0,0,1,.578.992c.245.465.23.765-.429.785-1.352.042-1.592-.073-2.167-1.344a1.7,1.7,0,0,0-1.838-1.177c-.969.072-1.947.013-2.921.008-.927,0-1.027.088-1.032.985,0,.077,0,.154,0,.231.01,1.249-.512,1.647-1.7,1.233a.812.812,0,0,1-.374-.624c-.037-1.125-.017-2.253-.017-3.38Zm5.4-.121v-.028c.744,0,1.488.008,2.232,0s1.45-.511,1.4-1.018c-.089-.845-.812-.742-1.357-.762-1.512-.056-3.025-.058-4.539-.054-.557,0-1.018.176-.985.886a.919.919,0,0,0,1.021.978C84.176,906.013,84.92,906.015,85.663,906.015Z" transform="translate(-247.771 -132.113)"/><path class="a" d="M-3.955,910.05c-1.151-.206-2.56-.441-3.961-.718a.617.617,0,0,1-.507-.87c.136-.392.223-.841.872-.71a13.88,13.88,0,0,0,4.691.592,11.757,11.757,0,0,0,2.224-.5c.28-.1.447-.519.666-.794-.276-.161-.539-.435-.829-.467-2.06-.229-4.134-.353-6.184-.641a3.148,3.148,0,0,1-1.6-.944,1.5,1.5,0,0,1,.685-2.344,10.192,10.192,0,0,1,6.759-.855,15.987,15.987,0,0,0,1.742.237c.876.11,1.218.641.81,1.342a.8.8,0,0,1-.631.32c-1.521-.147-3.033-.423-4.555-.487a8,8,0,0,0-2.39.464.8.8,0,0,0-.459.626.821.821,0,0,0,.606.506c1.406.083,2.822.042,4.224.16a10.041,10.041,0,0,1,2.892.579,1.763,1.763,0,0,1,.426,2.976c-.895.909-2.1.992-3.222,1.287A16.129,16.129,0,0,1-3.955,910.05Z" transform="translate(-186.051 -131.425)"/><path class="a" d="M326.58,910.071c-1.472-.256-2.86-.467-4.229-.764a1.272,1.272,0,0,1-.617-.674,2.6,2.6,0,0,1,.964-.906,1.566,1.566,0,0,1,1.036.169,9.482,9.482,0,0,0,4.323.375,5.517,5.517,0,0,0,1.824-.527c.183-.079.319-.508.289-.755-.021-.174-.347-.423-.556-.444-1.809-.177-3.628-.267-5.432-.479a6.448,6.448,0,0,1-2.156-.651,1.392,1.392,0,0,1-.254-2.222,4.115,4.115,0,0,1,1.585-1.029,10.014,10.014,0,0,1,5.88-.365,9.543,9.543,0,0,0,1.592.209c.522.068,1,.26.967.873-.036.656-.52.825-1.1.751a36.04,36.04,0,0,0-3.784-.461,12.84,12.84,0,0,0-2.857.452c-.237.051-.427.327-.639.5.254.224.474.551.77.648a4.817,4.817,0,0,0,1.295.116c1.434.056,2.871.06,4.3.166a2.806,2.806,0,0,1,2.258.937,1.589,1.589,0,0,1,.029,2.112,4.04,4.04,0,0,1-1.644,1.185C329.159,909.667,327.834,909.83,326.58,910.071Z" transform="translate(-414.6 -131.391)"/><path class="a" d="M39.846,902.058c1.533.1,3.072.151,4.6.326a2.564,2.564,0,0,1,1.986,1.981,2.455,2.455,0,0,1-1.611,2.534,4.226,4.226,0,0,1-1.633.354c-1.64.071-3.283.1-4.924.1-.727,0-1.057.274-.987,1,0,.051,0,.1,0,.154.028,1.308-.491,1.714-1.76,1.319a.718.718,0,0,1-.37-.55c-.018-2.052,0-4.105.008-6.158,0-.676.294-.943,1-.915,1.229.049,2.462.014,3.693.014Zm.771,1.8v-.033c-.743,0-1.487.01-2.23,0s-1.09.261-1.079.867a.925.925,0,0,0,1.087.986c.333-.008.665,0,1,0,1.178-.008,2.357,0,3.534-.036.681-.023,1.271-.542,1.226-1.032-.072-.775-.726-.7-1.228-.735C42.159,903.822,41.387,903.861,40.618,903.861Z" transform="translate(-216.545 -131.781)"/><path class="a" d="M154.548,906.22c-.046,1.052-.107,2.126-.133,3.2-.01.428-.192.55-.6.6a4.156,4.156,0,0,1-3.387-1.465c-1.358-1.241-2.786-2.406-4.192-3.592-.1-.082-.362-.14-.391-.1a1.048,1.048,0,0,0-.214.543c-.022,1.281-.05,2.564-.007,3.844.02.6-.209.788-.751.759a5.609,5.609,0,0,0-.769,0c-.476.041-.625-.183-.623-.634.01-2.1.016-4.2-.012-6.3-.008-.578.26-.789.769-.806a2.884,2.884,0,0,1,2.134.651c1.657,1.448,3.352,2.851,5.043,4.259a2.828,2.828,0,0,0,.654.307,2.893,2.893,0,0,0,.22-.743c.021-1.179,0-2.358.007-3.537.006-.731.247-.894,1.181-.914.585-.012.968.085.953.828C154.407,904.145,154.5,905.17,154.548,906.22Z" transform="translate(-291.51 -131.927)"/><path class="a" d="M195.165,909.848h-2.241c0-1.643,0-3.249,0-4.856,0-1.034-.006-1.032-1.01-1.029-.921,0-1.842,0-2.875,0v-1.7c2.251,0,4.427-.01,6.6,0,1,.006,2,.084,3,.077.562,0,.629.355.649.746s-.05.793-.587.808c-.9.024-1.795.075-2.69.05-.629-.018-.869.2-.858.839C195.184,906.447,195.165,908.111,195.165,909.848Z" transform="translate(-323.047 -131.918)"/><path class="a" d="M128.547,906.26c0,1.024-.025,2.049.01,3.072.018.511-.226.689-.666.718a2.412,2.412,0,0,1-.839-.006c-.206-.063-.509-.3-.512-.461-.034-2.226-.029-4.454-.02-6.681,0-.708.579-.536.964-.537.456,0,1.046-.091,1.046.669q0,1.613,0,3.226Z" transform="translate(-279.778 -131.981)"/></g></svg>