<svg xmlns="http://www.w3.org/2000/svg" width="20.414" height="20.414" viewBox="0 0 20.414 20.414"><defs><style>.a{fill:none;}</style></defs><g transform="translate(0 0)"><path class="a" d="M0,0H20.414V20.414H0Z"/><path d="M15.78,4.955H12.718V3.477A1.5,1.5,0,0,0,11.186,2H8.124A1.5,1.5,0,0,0,6.593,3.477V4.955H3.531A1.493,1.493,0,0,0,2.008,6.432L2,14.557a1.5,1.5,0,0,0,1.531,1.477H15.78a1.5,1.5,0,0,0,1.531-1.477V6.432A1.5,1.5,0,0,0,15.78,4.955Zm-4.593,0H8.124V3.477h3.062Z" transform="translate(0.552 0.552)"/></g></svg>