<svg xmlns="http://www.w3.org/2000/svg" width="33.639" height="33.639" viewBox="0 0 33.639 33.639"><defs><style>.a{fill:#fff;opacity:0.75;}</style></defs><path class="a" d="M3,6.738V32.9a3.737,3.737,0,0,0,3.738,3.738H32.9A3.749,3.749,0,0,0,36.639,32.9V6.738A3.749,3.749,0,0,0,32.9,3H6.738A3.737,3.737,0,0,0,3,6.738Zm22.426,7.475A5.607,5.607,0,1,1,19.82,8.607,5.6,5.6,0,0,1,25.426,14.213ZM8.607,29.164c0-3.738,7.475-5.793,11.213-5.793s11.213,2.056,11.213,5.793v1.869H8.607Z" transform="translate(-3 -3)"/></svg>