<svg xmlns="http://www.w3.org/2000/svg" width="265.238" height="237.8" viewBox="0 0 265.238 237.8"><defs><style>.a,.b,.c,.d{fill:#0092c0;}.a{opacity:0.4;}.b{opacity:0.8;}.d{opacity:0.6;}</style></defs><g transform="translate(-7.3 -11.2)"><g transform="translate(7.3 11.2)"><path class="a" d="M232.436,69.595C203.591,40.749,165.6,25.271,124.793,25.271S46,40.749,17.15,69.595L7.3,59.745A164.387,164.387,0,0,1,124.793,11.2c44.324,0,85.833,17.589,117.493,48.545Z" transform="translate(-7.3 -11.2)"/><path class="b" d="M95.191,53.142a47.56,47.56,0,0,0-67.541,0l-9.85-9.85a61.155,61.155,0,0,1,87.24,0Z" transform="translate(56.073 72.09)"/><g transform="translate(96.386 151.967)"><path class="c" d="M42.107,75.013A20.73,20.73,0,0,1,21,53.907,20.73,20.73,0,0,1,42.107,32.8,20.73,20.73,0,0,1,63.213,53.907,20.73,20.73,0,0,1,42.107,75.013Zm0-28.142a6.647,6.647,0,0,0-7.035,7.036,6.647,6.647,0,0,0,7.035,7.035,6.647,6.647,0,0,0,7.036-7.035A6.647,6.647,0,0,0,42.107,46.871Z" transform="translate(-21 -32.8)"/></g><path class="d" d="M169.9,46.342A113.534,113.534,0,0,0,94.615,18.2,116.012,116.012,0,0,0,12.3,51.97l9.85,9.85a101.666,101.666,0,0,1,134.378-9.146C160.749,50.563,164.97,47.749,169.9,46.342Z" transform="translate(22.878 31.049)"/><g transform="translate(166.742 89.775)"><path class="c" d="M63.363,87.559,55.624,55.2a17.687,17.687,0,0,1,1.407-10.553,12.555,12.555,0,0,1,8.443-6.332A13.483,13.483,0,0,1,82.359,48.864l4.925,20.4,13.367-3.518-4.221-20.4c-3.518-14.775-19-24.624-33.77-20.4A31.832,31.832,0,0,0,45.071,37.607c-4.221,6.332-4.925,14.071-3.518,21.107l7.036,28.846H31v63.32a20.73,20.73,0,0,0,21.107,21.107h56.284A20.73,20.73,0,0,0,129.5,150.879V87.559Zm52.063,63.32a6.647,6.647,0,0,1-7.035,7.035H52.107a6.647,6.647,0,0,1-7.036-7.035V101.63h70.355Z" transform="translate(-31 -23.96)"/><path class="c" d="M40.018,54.792V71.678H54.089V54.792a11.3,11.3,0,0,0,3.518-7.739A10.82,10.82,0,0,0,47.053,36.5,10.82,10.82,0,0,0,36.5,47.053,11.3,11.3,0,0,0,40.018,54.792Z" transform="translate(2.195 51.723)"/></g></g></g></svg>