<svg xmlns="http://www.w3.org/2000/svg" width="34.001" height="34.972" viewBox="0 0 34.001 34.972"><defs><style>.a{fill:#fff;opacity:0.75;}</style></defs><path class="a" d="M6.3,29.227l3.5,6.033a.891.891,0,0,0,1.078.379l4.342-1.749a12.368,12.368,0,0,0,2.943,1.719l.641,4.634a.9.9,0,0,0,.874.729h6.994a.9.9,0,0,0,.874-.758l.641-4.634a12.969,12.969,0,0,0,2.943-1.719l4.342,1.749a.891.891,0,0,0,1.078-.379l3.5-6.033a.9.9,0,0,0-.2-1.137l-3.7-2.885a10.987,10.987,0,0,0,.117-1.69,17.036,17.036,0,0,0-.117-1.719l3.7-2.885a.892.892,0,0,0,.2-1.137l-3.5-6.033a.891.891,0,0,0-1.078-.379l-4.342,1.749a12.368,12.368,0,0,0-2.943-1.719l-.157-1.134-.484-3.5A.9.9,0,0,0,26.667,6H19.673a.9.9,0,0,0-.874.758l-.641,4.634a12.268,12.268,0,0,0-2.943,1.69l-4.342-1.749a.891.891,0,0,0-1.078.379L6.3,17.745a.9.9,0,0,0,.2,1.137l3.7,2.885a11.41,11.41,0,0,0-.146,1.719,17.036,17.036,0,0,0,.117,1.719l-3.7,2.885A.891.891,0,0,0,6.3,29.227ZM23.17,18.5a4.983,4.983,0,1,1-4.983,4.983A5,5,0,0,1,23.17,18.5Z" transform="translate(-6.165 -6)"/></svg>