<svg xmlns="http://www.w3.org/2000/svg" width="34" height="34" viewBox="0 0 34 34"><defs><style>.a{fill:#fff;}.b{fill:none;}</style></defs><path class="a" d="M9.5,24.667A2.833,2.833,0,1,0,12.333,27.5,2.83,2.83,0,0,0,9.5,24.667ZM1,2V4.833H3.833l5.1,10.753L7.021,19.057a2.739,2.739,0,0,0-.354,1.36A2.842,2.842,0,0,0,9.5,23.25h17V20.417H10.095a.351.351,0,0,1-.354-.354l.042-.17,1.275-2.309H21.613a2.82,2.82,0,0,0,2.479-1.459L29.163,6.93a1.384,1.384,0,0,0,.17-.68,1.421,1.421,0,0,0-1.417-1.417H6.964L5.633,2H1ZM23.667,24.667A2.833,2.833,0,1,0,26.5,27.5,2.83,2.83,0,0,0,23.667,24.667Z" transform="translate(0.417 0.833)"/><path class="b" d="M0,0H34V34H0Z"/></svg>